# This file uses centimeters as units for non-parametric coordinates.

mtllib center.mtl
g default
v 0.795412 4.098765 -0.649280
v 0.920453 4.178521 -0.649280
v -0.816870 6.626493 -0.649280
v -0.691829 6.706249 -0.649280
vt 0.150926 0.658296
vt 0.400129 0.658296
vt 0.400129 0.907498
vt 0.150926 0.907498
vn 0.000000 0.000000 1.000000
vn 0.000000 0.000000 1.000000
vn 0.000000 0.000000 1.000000
vn 0.000000 0.000000 1.000000
s off
g pPlane1
usemtl blinn1SG
f 1/1/1 2/2/2 4/3/3 3/4/4
g default
v 0.991844 6.794416 -1.629206
v -0.892499 6.794416 -1.629206
v -1.834671 6.794416 0.002683
v -0.892499 6.794416 1.634572
v 0.991844 6.794416 1.634572
v 1.934015 6.794416 0.002683
v 0.991844 7.159529 -1.629206
v -0.892499 7.159529 -1.629206
v -1.834671 7.159529 0.002683
v -0.892499 7.159529 1.634572
v 0.991844 7.159529 1.634572
v 1.934015 7.159529 0.002683
v 0.049672 6.794416 0.002683
v 0.049672 7.159529 0.002683
vt 0.704021 0.312500
vt 0.745688 0.312500
vt 0.745688 0.688440
vt 0.704021 0.688440
vt 0.787354 0.312500
vt 0.787354 0.688440
vt 0.829021 0.312500
vt 0.829021 0.688440
vt 0.870688 0.312500
vt 0.870688 0.688440
vt 0.912354 0.312500
vt 0.912354 0.688440
vt 0.954021 0.312500
vt 0.954021 0.688440
vt 0.750896 0.020934
vt 0.907146 0.020934
vt 0.829021 0.150000
vt 0.672771 0.156250
vt 0.750896 0.291566
vt 0.907146 0.291566
vt 0.985271 0.156250
vt 0.907146 0.979066
vt 0.750896 0.979066
vt 0.829021 0.837500
vt 0.672771 0.843750
vt 0.750896 0.708434
vt 0.907146 0.708434
vt 0.985271 0.843750
vn 0.000000 0.000000 -1.000000
vn 0.000000 0.000000 -1.000000
vn 0.000000 0.000000 -1.000000
vn 0.000000 0.000000 -1.000000
vn -0.866025 0.000000 -0.500000
vn -0.866025 0.000000 -0.500000
vn -0.866025 0.000000 -0.500000
vn -0.866025 0.000000 -0.500000
vn -0.866025 0.000000 0.500000
vn -0.866025 0.000000 0.500000
vn -0.866025 0.000000 0.500000
vn -0.866025 0.000000 0.500000
vn 0.000000 0.000000 1.000000
vn 0.000000 0.000000 1.000000
vn 0.000000 0.000000 1.000000
vn 0.000000 0.000000 1.000000
vn 0.866025 0.000000 0.500000
vn 0.866025 0.000000 0.500000
vn 0.866025 0.000000 0.500000
vn 0.866025 0.000000 0.500000
vn 0.866026 0.000000 -0.500000
vn 0.866026 0.000000 -0.500000
vn 0.866026 0.000000 -0.500000
vn 0.866026 0.000000 -0.500000
vn 0.000000 -1.000000 0.000000
vn 0.000000 -1.000000 0.000000
vn 0.000000 -1.000000 0.000000
vn 0.000000 -1.000000 0.000000
vn 0.000000 -1.000000 0.000000
vn 0.000000 -1.000000 0.000000
vn 0.000000 -1.000000 0.000000
vn 0.000000 -1.000000 0.000000
vn 0.000000 -1.000000 0.000000
vn 0.000000 -1.000000 0.000000
vn 0.000000 -1.000000 0.000000
vn 0.000000 -1.000000 0.000000
vn 0.000000 -1.000000 0.000000
vn 0.000000 -1.000000 0.000000
vn 0.000000 -1.000000 0.000000
vn 0.000000 -1.000000 0.000000
vn 0.000000 -1.000000 0.000000
vn 0.000000 -1.000000 0.000000
vn 0.000000 1.000000 0.000000
vn 0.000000 1.000000 0.000000
vn 0.000000 1.000000 0.000000
vn 0.000000 1.000000 0.000000
vn 0.000000 1.000000 0.000000
vn 0.000000 1.000000 0.000000
vn 0.000000 1.000000 0.000000
vn 0.000000 1.000000 0.000000
vn 0.000000 1.000000 0.000000
vn 0.000000 1.000000 0.000000
vn 0.000000 1.000000 0.000000
vn 0.000000 1.000000 0.000000
vn 0.000000 1.000000 0.000000
vn 0.000000 1.000000 0.000000
vn 0.000000 1.000000 0.000000
vn 0.000000 1.000000 0.000000
vn 0.000000 1.000000 0.000000
vn 0.000000 1.000000 0.000000
s off
g pCylinder4
usemtl blinn1SG
f 5/5/5 6/6/6 12/7/7 11/8/8
f 6/6/9 7/9/10 13/10/11 12/7/12
f 7/9/13 8/11/14 14/12/15 13/10/16
f 8/11/17 9/13/18 15/14/19 14/12/20
f 9/13/21 10/15/22 16/16/23 15/14/24
f 10/15/25 5/17/26 11/18/27 16/16/28
f 6/19/29 5/20/30 17/21/31
f 7/22/32 6/19/33 17/21/34
f 8/23/35 7/22/36 17/21/37
f 9/24/38 8/23/39 17/21/40
f 10/25/41 9/24/42 17/21/43
f 5/20/44 10/25/45 17/21/46
f 11/26/47 12/27/48 18/28/49
f 12/27/50 13/29/51 18/28/52
f 13/29/53 14/30/54 18/28/55
f 14/30/56 15/31/57 18/28/58
f 15/31/59 16/32/60 18/28/61
f 16/32/62 11/26/63 18/28/64
g default
v 1.239973 -0.539721 -0.965365
v 1.481748 -0.539721 -0.557097
v 1.714430 -0.539721 -0.970614
v 0.741447 3.967415 -0.670139
v 0.983223 3.967415 -0.261871
v 1.215905 3.967415 -0.675389
v 0.741447 9.652754 -0.670139
v 0.983223 9.652754 -0.261871
v 1.215905 9.652754 -0.675389
v 1.478717 -0.539721 -0.831025
v 0.980192 9.652754 -0.535800
vt 0.704021 0.312500
vt 0.787354 0.312500
vt 0.787354 0.500470
vt 0.704021 0.500470
vt 0.870688 0.312500
vt 0.870688 0.500470
vt 0.954021 0.312500
vt 0.954021 0.500470
vt 0.787354 0.688440
vt 0.704021 0.688440
vt 0.870688 0.688440
vt 0.954021 0.688440
vt 0.750896 0.291566
vt 0.750896 0.020934
vt 0.829021 0.150000
vt 0.985271 0.156250
vt 0.750896 0.979066
vt 0.750896 0.708434
vt 0.829021 0.837500
vt 0.985271 0.843750
vn -0.853418 -0.127499 0.505393
vn -0.853418 -0.127499 0.505393
vn -0.853418 -0.127499 0.505393
vn -0.853418 -0.127499 0.505393
vn 0.869710 0.064142 0.489378
vn 0.869710 0.064142 0.489378
vn 0.870941 0.035937 0.490071
vn 0.871401 0.015412 0.490329
vn -0.011041 0.064142 -0.997880
vn -0.011041 0.064142 -0.997880
vn -0.011063 0.015412 -0.999820
vn -0.011057 0.035937 -0.999293
vn -0.859054 -0.056753 0.508730
vn -0.859054 -0.056753 0.508730
vn -0.860440 0.000000 0.509551
vn -0.860440 0.000000 0.509551
vn 0.871401 0.015412 0.490329
vn 0.870941 0.035937 0.490071
vn 0.871504 0.000000 0.490388
vn 0.871504 0.000000 0.490388
vn -0.011057 0.035937 -0.999293
vn -0.011063 0.015412 -0.999820
vn -0.011064 0.000000 -0.999939
vn -0.011064 0.000000 -0.999939
vn 0.000001 -1.000000 0.000001
vn 0.000000 -1.000000 0.000000
vn 0.000000 -1.000000 0.000001
vn 0.000001 -1.000000 0.000001
vn 0.000001 -1.000000 0.000001
vn 0.000000 -1.000000 0.000001
vn 0.000000 -1.000000 0.000000
vn 0.000001 -1.000000 0.000001
vn 0.000000 -1.000000 0.000001
vn 0.000000 1.000000 0.000000
vn 0.000001 1.000000 0.000001
vn 0.000000 1.000000 0.000001
vn 0.000001 1.000000 0.000001
vn 0.000001 1.000000 0.000001
vn 0.000000 1.000000 0.000001
vn 0.000001 1.000000 0.000001
vn 0.000000 1.000000 0.000000
vn 0.000000 1.000000 0.000001
s off
g pCylinder5
usemtl blinn1SG
f 19/33/65 20/34/66 23/35/67 22/36/68
f 20/34/69 21/37/70 24/38/71 23/35/72
f 21/37/73 19/39/74 22/40/75 24/38/76
f 22/36/77 23/35/78 26/41/79 25/42/80
f 23/35/81 24/38/82 27/43/83 26/41/84
f 24/38/85 22/40/86 25/44/87 27/43/88
f 20/45/89 19/46/90 28/47/91
f 21/48/92 20/45/93 28/47/94
f 19/46/95 21/48/96 28/47/97
f 25/49/98 26/50/99 29/51/100
f 26/50/101 27/52/102 29/51/103
f 27/52/104 25/49/105 29/51/106
g default
v -1.358752 -0.539721 -0.590423
v -1.115634 -0.539721 -0.997893
v -1.590072 -0.539721 -1.004703
v -0.861200 3.967415 -0.293558
v -0.618083 3.967415 -0.701028
v -1.092521 3.967415 -0.707839
v -0.861200 9.652754 -0.293558
v -0.618083 9.652754 -0.701028
v -1.092521 9.652754 -0.707839
v -1.354819 -0.539721 -0.864339
v -0.857268 9.652754 -0.567475
vt 0.704021 0.312500
vt 0.787354 0.312500
vt 0.787354 0.500470
vt 0.704021 0.500470
vt 0.870688 0.312500
vt 0.870688 0.500470
vt 0.954021 0.312500
vt 0.954021 0.500470
vt 0.787354 0.688440
vt 0.704021 0.688440
vt 0.870688 0.688440
vt 0.954021 0.688440
vt 0.750896 0.291566
vt 0.750896 0.020934
vt 0.829021 0.150000
vt 0.985271 0.156250
vt 0.750896 0.979066
vt 0.750896 0.708434
vt 0.829021 0.837500
vt 0.985271 0.843750
vn 0.851750 -0.127499 0.508198
vn 0.851750 -0.127499 0.508198
vn 0.851750 -0.127499 0.508198
vn 0.851750 -0.127499 0.508198
vn 0.014325 0.064142 -0.997838
vn 0.014324 0.064142 -0.997838
vn 0.014345 0.035937 -0.999251
vn 0.014352 0.015412 -0.999778
vn -0.871316 0.064142 0.486513
vn -0.871316 0.064142 0.486513
vn -0.873010 0.015412 0.487459
vn -0.872550 0.035937 0.487202
vn 0.857375 -0.056753 0.511554
vn 0.857375 -0.056753 0.511554
vn 0.858759 0.000000 0.512380
vn 0.858759 0.000000 0.512380
vn 0.014352 0.015412 -0.999778
vn 0.014345 0.035937 -0.999251
vn 0.014354 0.000000 -0.999897
vn 0.014354 0.000000 -0.999897
vn -0.872550 0.035937 0.487202
vn -0.873010 0.015412 0.487459
vn -0.873113 0.000000 0.487517
vn -0.873113 0.000000 0.487517
vn 0.000000 -1.000000 0.000000
vn 0.000000 -1.000000 0.000000
vn 0.000000 -1.000000 0.000000
vn 0.000000 -1.000000 0.000000
vn 0.000000 -1.000000 0.000000
vn 0.000000 -1.000000 0.000000
vn 0.000000 -1.000000 0.000000
vn 0.000000 -1.000000 0.000000
vn 0.000000 -1.000000 0.000000
vn 0.000000 1.000000 0.000000
vn 0.000001 1.000000 -0.000001
vn 0.000000 1.000000 -0.000001
vn 0.000001 1.000000 -0.000001
vn 0.000001 1.000000 -0.000001
vn 0.000000 1.000000 -0.000001
vn 0.000001 1.000000 -0.000001
vn 0.000000 1.000000 0.000000
vn 0.000000 1.000000 -0.000001
s off
g pCylinder6
usemtl blinn1SG
f 30/53/107 31/54/108 34/55/109 33/56/110
f 31/54/111 32/57/112 35/58/113 34/55/114
f 32/57/115 30/59/116 33/60/117 35/58/118
f 33/56/119 34/55/120 37/61/121 36/62/122
f 34/55/123 35/58/124 38/63/125 37/61/126
f 35/58/127 33/60/128 36/64/129 38/63/130
f 31/65/131 30/66/132 39/67/133
f 32/68/134 31/65/135 39/67/136
f 30/66/137 32/68/138 39/67/139
f 36/69/140 37/70/141 40/71/142
f 37/70/143 38/72/144 40/71/145
f 38/72/146 36/69/147 40/71/148
g default
v 0.298461 -0.539721 1.522114
v -0.176026 -0.539721 1.522004
v 0.061123 -0.539721 1.932976
v 0.298594 3.967415 0.942730
v -0.175892 3.967415 0.942620
v 0.061256 3.967415 1.353593
v 0.298594 9.652754 0.942730
v -0.175892 9.652754 0.942620
v 0.061256 9.652754 1.353593
v 0.061186 -0.539721 1.659031
v 0.061319 9.652754 1.079648
vt 0.704021 0.312500
vt 0.787354 0.312500
vt 0.787354 0.500470
vt 0.704021 0.500470
vt 0.870688 0.312500
vt 0.870688 0.500470
vt 0.954021 0.312500
vt 0.954021 0.500470
vt 0.787354 0.688440
vt 0.704021 0.688440
vt 0.870688 0.688440
vt 0.954021 0.688440
vt 0.750896 0.291566
vt 0.750896 0.020934
vt 0.829021 0.150000
vt 0.985271 0.156250
vt 0.750896 0.979066
vt 0.750896 0.708434
vt 0.829021 0.837500
vt 0.985271 0.843750
vn 0.000230 -0.127499 -0.991839
vn 0.000230 -0.127499 -0.991839
vn 0.000230 -0.127499 -0.991839
vn 0.000230 -0.127499 -0.991839
vn -0.864357 0.064142 0.498771
vn -0.864357 0.064142 0.498771
vn -0.865581 0.035937 0.499478
vn -0.866038 0.015412 0.499741
vn 0.864127 0.064142 0.499170
vn 0.864127 0.064142 0.499170
vn 0.865807 0.015412 0.500140
vn 0.865351 0.035937 0.499877
vn 0.000230 -0.056753 -0.998388
vn 0.000230 -0.056753 -0.998388
vn 0.000230 0.000000 -1.000000
vn 0.000230 0.000000 -1.000000
vn -0.866038 0.015412 0.499741
vn -0.865581 0.035937 0.499478
vn -0.866141 0.000000 0.499800
vn -0.866141 0.000000 0.499800
vn 0.865351 0.035937 0.499877
vn 0.865807 0.015412 0.500140
vn 0.865910 0.000000 0.500200
vn 0.865910 0.000000 0.500200
vn 0.000000 -1.000000 0.000000
vn 0.000000 -1.000000 0.000000
vn 0.000000 -1.000000 0.000000
vn 0.000000 -1.000000 0.000000
vn 0.000000 -1.000000 0.000000
vn 0.000000 -1.000000 0.000000
vn 0.000000 -1.000000 0.000000
vn 0.000000 -1.000000 0.000000
vn 0.000000 -1.000000 0.000000
vn 0.000000 1.000000 0.000000
vn -0.000001 1.000000 -0.000000
vn -0.000001 1.000000 -0.000000
vn -0.000001 1.000000 -0.000000
vn -0.000001 1.000000 -0.000000
vn -0.000001 1.000000 -0.000000
vn -0.000001 1.000000 -0.000000
vn 0.000000 1.000000 0.000000
vn -0.000001 1.000000 -0.000000
s off
g pCylinder7
usemtl blinn1SG
f 41/73/149 42/74/150 45/75/151 44/76/152
f 42/74/153 43/77/154 46/78/155 45/75/156
f 43/77/157 41/79/158 44/80/159 46/78/160
f 44/76/161 45/75/162 48/81/163 47/82/164
f 45/75/165 46/78/166 49/83/167 48/81/168
f 46/78/169 44/80/170 47/84/171 49/83/172
f 42/85/173 41/86/174 50/87/175
f 43/88/176 42/85/177 50/87/178
f 41/86/179 43/88/180 50/87/181
f 47/89/182 48/90/183 51/91/184
f 48/90/185 49/92/186 51/91/187
f 49/92/188 47/89/189 51/91/190
g default
v 0.991844 9.413842 -1.629206
v -0.892499 9.413842 -1.629206
v -1.834671 9.413842 0.002683
v -0.892499 9.413842 1.634572
v 0.991844 9.413842 1.634572
v 1.934015 9.413842 0.002683
v 0.991844 9.778955 -1.629206
v -0.892499 9.778955 -1.629206
v -1.834671 9.778955 0.002683
v -0.892499 9.778955 1.634572
v 0.991844 9.778955 1.634572
v 1.934015 9.778955 0.002683
v 0.049672 9.413842 0.002683
v 0.049672 9.778955 0.002683
vt 0.704021 0.312500
vt 0.745688 0.312500
vt 0.745688 0.688440
vt 0.704021 0.688440
vt 0.787354 0.312500
vt 0.787354 0.688440
vt 0.829021 0.312500
vt 0.829021 0.688440
vt 0.870688 0.312500
vt 0.870688 0.688440
vt 0.912354 0.312500
vt 0.912354 0.688440
vt 0.954021 0.312500
vt 0.954021 0.688440
vt 0.750896 0.020934
vt 0.907146 0.020934
vt 0.829021 0.150000
vt 0.672771 0.156250
vt 0.750896 0.291566
vt 0.907146 0.291566
vt 0.985271 0.156250
vt 0.907146 0.979066
vt 0.750896 0.979066
vt 0.829021 0.837500
vt 0.672771 0.843750
vt 0.750896 0.708434
vt 0.907146 0.708434
vt 0.985271 0.843750
vn 0.000000 0.000000 -1.000000
vn 0.000000 0.000000 -1.000000
vn 0.000000 0.000000 -1.000000
vn 0.000000 0.000000 -1.000000
vn -0.866025 0.000000 -0.500000
vn -0.866025 0.000000 -0.500000
vn -0.866025 0.000000 -0.500000
vn -0.866025 0.000000 -0.500000
vn -0.866025 0.000000 0.500000
vn -0.866025 0.000000 0.500000
vn -0.866025 0.000000 0.500000
vn -0.866025 0.000000 0.500000
vn 0.000000 0.000000 1.000000
vn 0.000000 0.000000 1.000000
vn 0.000000 0.000000 1.000000
vn 0.000000 0.000000 1.000000
vn 0.866025 0.000000 0.500000
vn 0.866025 0.000000 0.500000
vn 0.866025 0.000000 0.500000
vn 0.866025 0.000000 0.500000
vn 0.866026 0.000000 -0.500000
vn 0.866026 0.000000 -0.500000
vn 0.866026 0.000000 -0.500000
vn 0.866026 0.000000 -0.500000
vn 0.000000 -1.000000 0.000000
vn 0.000000 -1.000000 0.000000
vn 0.000000 -1.000000 0.000000
vn 0.000000 -1.000000 0.000000
vn 0.000000 -1.000000 0.000000
vn 0.000000 -1.000000 0.000000
vn 0.000000 -1.000000 0.000000
vn 0.000000 -1.000000 0.000000
vn 0.000000 -1.000000 0.000000
vn 0.000000 -1.000000 0.000000
vn 0.000000 -1.000000 0.000000
vn 0.000000 -1.000000 0.000000
vn 0.000000 -1.000000 0.000000
vn 0.000000 -1.000000 0.000000
vn 0.000000 -1.000000 0.000000
vn 0.000000 -1.000000 0.000000
vn 0.000000 -1.000000 0.000000
vn 0.000000 -1.000000 0.000000
vn 0.000000 1.000000 0.000000
vn 0.000000 1.000000 0.000000
vn 0.000000 1.000000 0.000000
vn 0.000000 1.000000 0.000000
vn 0.000000 1.000000 0.000000
vn 0.000000 1.000000 0.000000
vn 0.000000 1.000000 0.000000
vn 0.000000 1.000000 0.000000
vn 0.000000 1.000000 0.000000
vn 0.000000 1.000000 0.000000
vn 0.000000 1.000000 0.000000
vn 0.000000 1.000000 0.000000
vn 0.000000 1.000000 0.000000
vn 0.000000 1.000000 0.000000
vn 0.000000 1.000000 0.000000
vn 0.000000 1.000000 0.000000
vn 0.000000 1.000000 0.000000
vn 0.000000 1.000000 0.000000
s off
g pCylinder8
usemtl blinn1SG
f 52/93/191 53/94/192 59/95/193 58/96/194
f 53/94/195 54/97/196 60/98/197 59/95/198
f 54/97/199 55/99/200 61/100/201 60/98/202
f 55/99/203 56/101/204 62/102/205 61/100/206
f 56/101/207 57/103/208 63/104/209 62/102/210
f 57/103/211 52/105/212 58/106/213 63/104/214
f 53/107/215 52/108/216 64/109/217
f 54/110/218 53/107/219 64/109/220
f 55/111/221 54/110/222 64/109/223
f 56/112/224 55/111/225 64/109/226
f 57/113/227 56/112/228 64/109/229
f 52/108/230 57/113/231 64/109/232
f 58/114/233 59/115/234 65/116/235
f 59/115/236 60/117/237 65/116/238
f 60/117/239 61/118/240 65/116/241
f 61/118/242 62/119/243 65/116/244
f 62/119/245 63/120/246 65/116/247
f 63/120/248 58/114/249 65/116/250
g default
v -0.105228 9.728663 -0.109114
v -0.105228 9.728663 0.156950
v 0.125190 9.728663 0.023918
v -0.105228 11.779510 -0.109114
v -0.105228 11.779510 0.156950
v 0.125190 11.779510 0.023918
v -0.028422 9.728663 0.023918
v -0.028422 11.779510 0.023918
vt 0.704021 0.312500
vt 0.787354 0.312500
vt 0.787354 0.688440
vt 0.704021 0.688440
vt 0.870688 0.312500
vt 0.870688 0.688440
vt 0.954021 0.312500
vt 0.954021 0.688440
vt 0.750896 0.291566
vt 0.750896 0.020934
vt 0.829021 0.150000
vt 0.985271 0.156250
vt 0.750896 0.979066
vt 0.750896 0.708434
vt 0.829021 0.837500
vt 0.985271 0.843750
vn -1.000000 0.000000 0.000000
vn -1.000000 0.000000 0.000000
vn -1.000000 0.000000 0.000000
vn -1.000000 0.000000 0.000000
vn 0.500000 0.000000 0.866026
vn 0.500000 0.000000 0.866026
vn 0.500000 0.000000 0.866026
vn 0.500000 0.000000 0.866026
vn 0.500000 0.000000 -0.866025
vn 0.500000 0.000000 -0.866025
vn 0.500000 0.000000 -0.866025
vn 0.500000 0.000000 -0.866025
vn 0.000000 -1.000000 0.000000
vn 0.000000 -1.000000 0.000000
vn 0.000000 -1.000000 0.000001
vn 0.000000 -1.000000 0.000001
vn 0.000000 -1.000000 0.000000
vn 0.000000 -1.000000 0.000001
vn 0.000000 -1.000000 0.000000
vn 0.000000 -1.000000 0.000001
vn 0.000000 -1.000000 0.000001
vn 0.000000 1.000000 0.000000
vn 0.000000 1.000000 0.000000
vn 0.000000 1.000000 0.000000
vn 0.000000 1.000000 0.000000
vn 0.000000 1.000000 0.000000
vn 0.000000 1.000000 0.000000
vn 0.000000 1.000000 0.000000
vn 0.000000 1.000000 0.000000
vn 0.000000 1.000000 0.000000
s off
g pCylinder9
usemtl blinn1SG
f 66/121/251 67/122/252 70/123/253 69/124/254
f 67/122/255 68/125/256 71/126/257 70/123/258
f 68/125/259 66/127/260 69/128/261 71/126/262
f 67/129/263 66/130/264 72/131/265
f 68/132/266 67/129/267 72/131/268
f 66/130/269 68/132/270 72/131/271
f 69/133/272 70/134/273 73/135/274
f 70/134/275 71/136/276 73/135/277
f 71/136/278 69/133/279 73/135/280
g default
v -0.810827 4.174254 -0.649280
v -0.685394 4.095115 -0.649280
v 0.788977 6.709899 -0.649280
v 0.914410 6.630760 -0.649280
vt 0.150926 0.658296
vt 0.400129 0.658296
vt 0.400129 0.907498
vt 0.150926 0.907498
vn 0.000000 0.000000 1.000000
vn 0.000000 0.000000 1.000000
vn 0.000000 0.000000 1.000000
vn 0.000000 0.000000 1.000000
s off
g pPlane2
usemtl blinn1SG
f 74/137/281 75/138/282 77/139/283 76/140/284
g default
v -0.837185 4.098765 -0.329891
v -0.900229 4.178521 -0.437876
v -0.024290 6.626493 1.062466
v -0.087334 6.706249 0.954481
vt 0.150926 0.658296
vt 0.400129 0.658296
vt 0.400129 0.907498
vt 0.150926 0.907498
vn 0.863595 -0.000002 -0.504187
vn 0.863595 -0.000002 -0.504187
vn 0.863595 -0.000002 -0.504187
vn 0.863595 -0.000002 -0.504187
s off
g pPlane3
usemtl blinn1SG
f 78/141/285 79/142/286 81/143/287 80/144/288
g default
v -0.027337 4.174254 1.057247
v -0.090579 4.095115 0.948924
v -0.833940 6.709898 -0.324333
v -0.897182 6.630760 -0.432656
vt 0.150926 0.658296
vt 0.400129 0.658296
vt 0.400129 0.907498
vt 0.150926 0.907498
vn 0.863594 -0.000000 -0.504188
vn 0.863594 -0.000000 -0.504188
vn 0.863594 -0.000000 -0.504188
vn 0.863594 -0.000000 -0.504188
s off
g pPlane4
usemtl blinn1SG
f 82/145/289 83/146/290 85/147/291 84/148/292
g default
v 0.956676 4.098765 -0.320060
v 1.019327 4.178521 -0.428274
v 0.148855 6.626493 1.075246
v 0.211505 6.706249 0.967032
vt 0.150926 0.658296
vt 0.400129 0.658296
vt 0.400129 0.907498
vt 0.150926 0.907498
vn 0.865425 0.000002 0.501039
vn 0.865425 0.000002 0.501039
vn 0.865425 0.000002 0.501039
vn 0.865425 0.000002 0.501039
s off
g pPlane7
usemtl blinn1SG
f 86/149/293 87/150/294 89/151/295 88/152/296
g default
v 0.151883 4.174254 1.070016
v 0.214730 4.095115 0.961463
v 0.953452 6.709898 -0.314491
v 1.016299 6.630760 -0.423043
vt 0.150926 0.658296
vt 0.400129 0.658296
vt 0.400129 0.907498
vt 0.150926 0.907498
vn 0.865423 -0.000001 0.501042
vn 0.865423 -0.000001 0.501042
vn 0.865423 -0.000001 0.501042
vn 0.865423 -0.000001 0.501042
s off
g pPlane8
usemtl blinn1SG
f 90/153/297 91/154/298 93/155/299 92/156/300
g default
v 0.956676 4.098765 -0.320060
v 1.019327 4.178521 -0.428274
v 0.148855 6.626493 1.075246
v 0.211505 6.706249 0.967032
vt 0.150926 0.658296
vt 0.400129 0.658296
vt 0.400129 0.907498
vt 0.150926 0.907498
vn 0.865425 0.000002 0.501039
vn 0.865425 0.000002 0.501039
vn 0.865425 0.000002 0.501039
vn 0.865425 0.000002 0.501039
s off
g pPlane9
usemtl blinn1SG
f 94/157/301 95/158/302 97/159/303 96/160/304
g default
v 0.151883 4.174254 1.070016
v 0.214730 4.095115 0.961463
v 0.953452 6.709898 -0.314491
v 1.016299 6.630760 -0.423043
vt 0.150926 0.658296
vt 0.400129 0.658296
vt 0.400129 0.907498
vt 0.150926 0.907498
vn 0.865423 -0.000001 0.501042
vn 0.865423 -0.000001 0.501042
vn 0.865423 -0.000001 0.501042
vn 0.865423 -0.000001 0.501042
s off
g pPlane10
usemtl blinn1SG
f 98/161/305 99/162/306 101/163/307 100/164/308
g default
v -0.922384 6.166000 2.073337
v -1.671613 6.430778 1.393405
v -1.671614 7.472607 1.302019
v -0.922384 7.851714 1.925471
v -0.459335 7.044186 2.402171
v -0.923518 6.972447 1.584316
vt 0.011511 0.041657
vt 0.111511 0.041657
vt 0.261511 0.541657
vt 0.211511 0.041657
vt 0.311511 0.041657
vt 0.411511 0.041657
vt 0.511511 0.041657
vn 0.510251 -0.445405 -0.735703
vn 0.510251 -0.445405 -0.735703
vn 0.510251 -0.445405 -0.735703
vn 0.302604 -0.083285 -0.949471
vn 0.302604 -0.083285 -0.949471
vn 0.302604 -0.083285 -0.949471
vn 0.510250 0.310521 -0.802011
vn 0.510250 0.310521 -0.802011
vn 0.510250 0.310521 -0.802011
vn 0.846227 0.191787 -0.497109
vn 0.846227 0.191787 -0.497109
vn 0.846227 0.191787 -0.497109
vn 0.846227 -0.275402 -0.456128
vn 0.846227 -0.275402 -0.456128
vn 0.846227 -0.275402 -0.456128
s off
g pCone1
usemtl blinn1SG
f 102/165/309 103/166/310 107/167/311
f 103/166/312 104/168/313 107/167/314
f 104/168/315 105/169/316 107/167/317
f 105/169/318 106/170/319 107/167/320
f 106/170/321 102/171/322 107/167/323
g default
v -0.247747 6.135803 -1.785402
v 0.713734 6.435491 -2.067359
v 0.713734 7.477319 -2.158745
v -0.247747 7.821517 -1.933268
v -0.841975 6.992415 -1.702529
v 0.098180 6.998958 -1.627932
vt 0.011511 0.041657
vt 0.111511 0.041657
vt 0.261511 0.541657
vt 0.211511 0.041657
vt 0.311511 0.041657
vt 0.411511 0.041657
vt 0.511511 0.041657
vn 0.353974 -0.303267 0.884721
vn 0.353974 -0.303267 0.884721
vn 0.353974 -0.303267 0.884721
vn 0.620443 0.068529 0.781251
vn 0.620443 0.068529 0.781251
vn 0.620443 0.068529 0.781251
vn 0.353973 0.452660 0.818414
vn 0.353973 0.452660 0.818414
vn 0.353973 0.452660 0.818414
vn -0.077185 0.318271 0.944852
vn -0.077185 0.318271 0.944852
vn -0.077185 0.318271 0.944852
vn -0.077185 -0.148917 0.985833
vn -0.077185 -0.148917 0.985833
vn -0.077185 -0.148917 0.985833
s off
g pCone2
usemtl blinn1SG
f 108/172/324 109/173/325 113/174/326
f 109/173/327 110/175/328 113/174/329
f 110/175/330 111/176/331 113/174/332
f 111/176/333 112/177/334 113/174/335
f 112/177/336 108/178/337 113/174/338
g default
v 1.612534 8.764565 -1.110502
v 2.094662 9.162528 -0.272088
v 2.094662 10.204357 -0.363474
v 1.612534 10.450279 -1.258367
v 1.314563 9.560439 -1.720056
v 1.471910 9.641696 -0.793698
vt 0.011511 0.041657
vt 0.111511 0.041657
vt 0.261511 0.541657
vt 0.211511 0.041657
vt 0.311511 0.041657
vt 0.411511 0.041657
vt 0.511511 0.041657
vn -0.742293 -0.329702 0.583350
vn -0.742293 -0.329702 0.583350
vn -0.742293 -0.329702 0.583350
vn -0.608674 0.069330 0.790386
vn -0.608674 0.069330 0.790386
vn -0.608674 0.069330 0.790386
vn -0.742293 0.426225 0.517043
vn -0.742293 0.426225 0.517043
vn -0.742293 0.426225 0.517043
vn -0.958494 0.247766 0.141072
vn -0.958494 0.247766 0.141072
vn -0.958494 0.247766 0.141072
vn -0.958494 -0.219422 0.182053
vn -0.958494 -0.219422 0.182053
vn -0.958494 -0.219422 0.182053
s off
g pCone3
usemtl blinn1SG
f 114/179/339 115/180/340 119/181/341
f 115/180/342 116/182/343 119/181/344
f 116/182/345 117/183/346 119/181/347
f 117/183/348 118/184/349 119/181/350
f 118/184/351 114/185/352 119/181/353
